# xmcd
#
# Track frame offsets: 
#        150
#        15284
#        27365
#        41044
#        57388
#        71562
#        86210
#        97782
#        111490
#        124007
#        137640
#        153605
#        166841
#        179641
#        196598
#        207776
#        217628
#        228203
#        249026
#        260908
#        273348
#        288639
#
# Disc length: 4006 seconds
#
# Revision: 0
# Processed by: cddbd v1.5.2PL0 Copyright (c) Steve Scherf et al.
# Submitted via: ExactAudioCopyFreeDBPlugin 1.0
#
DISCID=330fa416
DTITLE=Jerry Lee Lewis - Who's Gonna Play This Old Piano... (Think Abo
DTITLE=ut It Darling) and Sometimes A Memory Ain't Enough
DYEAR=2015
DGENRE=Country
TTITLE0=Who's Gonna Play This Old Piano
TTITLE1=She's Reachin' For My Mind
TTITLE2=Too Many Rivers
TTITLE3=We Both Know Which One Of Us Was Wrong
TTITLE4=Wall Around Heaven
TTITLE5=No More Hanging On
TTITLE6=Think About It Darlin'
TTITLE7=Bottom Dollar
TTITLE8=No Traffic Out Of Abilene
TTITLE9=Parting Is Such Sweet Sorrow
TTITLE10=The Mercy Of A Letter
TTITLE11=Sometimes A Memory Ain't Enough
TTITLE12=Ride Me Down Easy
TTITLE13=Mama's Hands
TTITLE14=What My Woman Can't Do
TTITLE15=My Cricket And Me
TTITLE16=I'm Left, You're Right, She's Gone
TTITLE17=Honky Tonk Wine
TTITLE18=Falling To The Bottom
TTITLE19=I Think I Need To Pray
TTITLE20=The Morning After Baby Let Me Down
TTITLE21=Keep Me From Blowing Away
EXTD=
EXTT0=
EXTT1=
EXTT2=
EXTT3=
EXTT4=
EXTT5=
EXTT6=
EXTT7=
EXTT8=
EXTT9=
EXTT10=
EXTT11=
EXTT12=
EXTT13=
EXTT14=
EXTT15=
EXTT16=
EXTT17=
EXTT18=
EXTT19=
EXTT20=
EXTT21=
PLAYORDER=
